<?xml version="1.0" encoding="UTF-8" standalone="no"?>
<!-- Created with Inkscape (http://www.inkscape.org/) -->

<svg
   version="1.1"
   id="svg2"
   width="179.989"
   height="179.98901"
   viewBox="0 0 179.989 179.98901"
   sodipodi:docname="logo pequena.svg"
   inkscape:version="1.2.1 (9c6d41e410, 2022-07-14)"
   xmlns:inkscape="http://www.inkscape.org/namespaces/inkscape"
   xmlns:sodipodi="http://sodipodi.sourceforge.net/DTD/sodipodi-0.dtd"
   xmlns="http://www.w3.org/2000/svg"
   xmlns:svg="http://www.w3.org/2000/svg">
  <defs
     id="defs6">
    <clipPath
       clipPathUnits="userSpaceOnUse"
       id="clipPath18">
      <path
         d="M 0,0 H 1562.5 V 1593.75 H 0 Z"
         clip-rule="evenodd"
         id="path16" />
    </clipPath>
    <clipPath
       clipPathUnits="userSpaceOnUse"
       id="clipPath32">
      <path
         d="M 0,0 H 1562.5 V 1562.5 H 0 Z"
         clip-rule="evenodd"
         id="path30" />
    </clipPath>
    <clipPath
       clipPathUnits="userSpaceOnUse"
       id="clipPath44">
      <path
         d="M 0,0 H 1562.5 V 1562.5 H 0 Z"
         clip-rule="evenodd"
         id="path42" />
    </clipPath>
    <clipPath
       clipPathUnits="userSpaceOnUse"
       id="clipPath56">
      <path
         d="m 486.41983,274.67566 h 562.49997 v 562.5 H 486.41983 Z"
         clip-rule="evenodd"
         id="path54" />
    </clipPath>
    <clipPath
       clipPathUnits="userSpaceOnUse"
       id="clipPath74">
      <path
         d="M 501.06351,466.87384 H 1039.2184 V 837.14136 H 501.06351 Z"
         clip-rule="evenodd"
         id="path72" />
    </clipPath>
    <clipPath
       clipPathUnits="userSpaceOnUse"
       id="clipPath86">
      <path
         d="m 486.41983,274.67566 h 562.46567 v 360.6004 H 486.41983 Z"
         clip-rule="evenodd"
         id="path84" />
    </clipPath>
    <clipPath
       clipPathUnits="userSpaceOnUse"
       id="clipPath98">
      <path
         d="m 486.41983,274.67566 h 562.49997 v 562.5 H 486.41983 Z"
         clip-rule="evenodd"
         id="path96" />
    </clipPath>
    <clipPath
       clipPathUnits="userSpaceOnUse"
       id="clipPath114">
      <path
         d="M 0,0 H 1562.5 V 1562.5 H 0 Z"
         clip-rule="evenodd"
         id="path112" />
    </clipPath>
  </defs>
  <sodipodi:namedview
     id="namedview4"
     pagecolor="#505050"
     bordercolor="#eeeeee"
     borderopacity="1"
     inkscape:showpageshadow="0"
     inkscape:pageopacity="0"
     inkscape:pagecheckerboard="0"
     inkscape:deskcolor="#505050"
     showgrid="false"
     inkscape:zoom="2.3673935"
     inkscape:cx="69.2745"
     inkscape:cy="79.412231"
     inkscape:window-width="1920"
     inkscape:window-height="1017"
     inkscape:window-x="-8"
     inkscape:window-y="-8"
     inkscape:window-maximized="1"
     inkscape:current-layer="g10">
    <inkscape:page
       x="0"
       y="0"
       id="page8"
       width="179.989"
       height="179.98901"
       inkscape:export-filename="logo.png"
       inkscape:export-xdpi="1152.0704"
       inkscape:export-ydpi="1152.0704" />
  </sodipodi:namedview>
  <g
     id="g10"
     inkscape:groupmode="layer"
     inkscape:label="Page 1"
     transform="matrix(0.31999998,0,0,0.31999998,-155.65434,-87.896206)">
    <g
       id="g50"
       style="fill:#fec106;fill-opacity:1">
      <g
         id="g52"
         clip-path="url(#clipPath56)"
         style="fill:#fec106;fill-opacity:1">
        <g
           id="g58"
           transform="matrix(1.8304589,0,0,1.8304589,486.41983,274.67566)"
           style="fill:#fec106;fill-opacity:1">
          <path
             d="m 182.70313,188.30078 h -16.36719 v -16.36719 h 16.36719 v 16.36719"
             style="fill:#fec106;fill-opacity:1;fill-rule:nonzero;stroke:none"
             id="path60" />
          <path
             d="m 182.70313,208.60547 h -16.36719 v -16.36719 h 16.36719 v 16.36719"
             style="fill:#fec106;fill-opacity:1;fill-rule:nonzero;stroke:none"
             id="path62" />
          <path
             d="m 203.21484,188.30078 h -16.36718 v -16.36719 h 16.36718 v 16.36719"
             style="fill:#fec106;fill-opacity:1;fill-rule:nonzero;stroke:none"
             id="path64" />
          <path
             d="m 203.21484,208.60547 h -16.36718 v -16.36719 h 16.36718 v 16.36719"
             style="fill:#fec106;fill-opacity:1;fill-rule:nonzero;stroke:none"
             id="path66" />
        </g>
      </g>
    </g>
    <g
       id="g68"
       style="fill:#0f3950;fill-opacity:1;stroke:none;stroke-opacity:1">
      <g
         id="g70"
         clip-path="url(#clipPath74)"
         style="fill:#0f3950;fill-opacity:1;stroke:none;stroke-opacity:1">
        <g
           id="g76"
           transform="matrix(1.8304589,0,0,1.8304589,486.41983,274.67566)"
           style="fill:#0f3950;fill-opacity:1;stroke:none;stroke-opacity:1">
          <path
             d="m 301.22656,196.42969 -36.68359,-28.6836 v 6.92969 h -9.8125 v -27.69922 l 8.53125,7.65235 -8.53125,-22.75 h -17.34375 v 14.63281 L 184.77734,105.37891 68.324219,196.42969 h 29.027344 l 87.425777,-68.35547 87.42188,68.35547 h 0.23437 c -17.53515,48.66797 -64.08593,83.47265 -118.79297,83.47265 -51.35937,0 -95.554682,-30.66796 -115.281245,-74.6875 l -0.195312,0.15235 H 8.9375 c 21.238281,59.40234 78.003906,101.91406 144.70312,101.91406 70.00391,0 129.06251,-46.81641 147.59376,-110.84766 l -0.008,-0.004"
             style="fill:#0f3950;fill-opacity:1;fill-rule:nonzero;stroke:none;stroke-opacity:1"
             id="path78" />
        </g>
      </g>
    </g>
    <g
       id="g80"
       style="fill:#ffffff;fill-opacity:1;stroke:none;stroke-width:0;stroke-dasharray:none;stroke-opacity:1">
      <g
         id="g82"
         clip-path="url(#clipPath86)"
         style="fill:#ffffff;fill-opacity:1;stroke:none;stroke-width:0;stroke-dasharray:none;stroke-opacity:1">
        <g
           id="g88"
           transform="matrix(1.8304589,0,0,1.8304589,486.41983,274.67566)"
           style="fill:#ffffff;fill-opacity:1;stroke:none;stroke-width:0;stroke-dasharray:none;stroke-opacity:1">
          <path
             d="M 153.64062,-0.00390625 C 68.789063,-0.00390625 0,68.785156 0,153.64062 c 0,14.85157 2.113281,29.20704 6.046875,42.79297 l 0.00781,-0.004 h 29.027343 l 87.425782,-68.35547 11.3711,8.89062 14.51171,-11.35156 -25.88281,-20.23437 -92.789063,72.55078 C 28.1875,170.06641 27.375,161.94922 27.375,153.64062 c 0,-69.738276 56.53125,-126.269526 126.26562,-126.269526 69.73438,0 126.26563,56.53125 126.26563,126.269526 0,4.78516 -0.27344,9.50391 -0.79297,14.15235 l 24.53125,19.17969 c 2.375,-10.73438 3.63672,-21.88672 3.63672,-33.33204 0,-84.855464 -68.78516,-153.64452625 -153.64063,-153.64452625"
             style="fill:#ffffff;fill-opacity:1;fill-rule:nonzero;stroke:none;stroke-width:0;stroke-dasharray:none;stroke-opacity:1"
             id="path90" />
        </g>
      </g>
    </g>
    <g
       id="g92"
       style="fill:#fec106;fill-opacity:1">
      <g
         id="g94"
         clip-path="url(#clipPath98)"
         style="fill:#fec106;fill-opacity:1">
        <g
           id="g100"
           transform="matrix(1.8304589,0,0,1.8304589,486.41983,274.67566)"
           style="fill:#fec106;fill-opacity:1">
          <path
             d="m 177.3125,62.355469 c -20.39453,1.410156 -21.53516,2.550781 -22.94531,22.945312 -1.40625,-20.394531 -2.54688,-21.535156 -22.94141,-22.945312 20.39453,-1.40625 21.53516,-2.546875 22.94141,-22.941406 1.41015,20.394531 2.55078,21.535156 22.94531,22.941406"
             style="fill:#fec106;fill-opacity:1;fill-rule:nonzero;stroke:none"
             id="path102" />
          <path
             d="M 220.29688,82.433594 C 205.75781,83.4375 204.94531,84.25 203.94141,98.785156 202.9375,84.25 202.125,83.4375 187.58984,82.433594 202.125,81.429688 202.9375,80.617188 203.94141,66.082031 c 1.0039,14.535157 1.8164,15.347657 16.35547,16.351563"
             style="fill:#fec106;fill-opacity:1;fill-rule:nonzero;stroke:none"
             id="path104" />
          <path
             d="M 119.69531,82.433594 C 105.15625,83.4375 104.34375,84.25 103.33984,98.785156 102.33984,84.25 101.52344,83.4375 86.988281,82.433594 101.52344,81.429688 102.33984,80.617188 103.33984,66.082031 c 1.00391,14.535157 1.81641,15.347657 16.35547,16.351563"
             style="fill:#fec106;fill-opacity:1;fill-rule:nonzero;stroke:none"
             id="path106" />
        </g>
      </g>
    </g>
  </g>
</svg>
